<svg width="683" height="683" viewBox="0 0 683 683" fill="none" xmlns="http://www.w3.org/2000/svg">
<path d="M334.001 103.333C330.801 106.4 330.667 107.067 330.667 126.8V146.933L322.801 155.333C308.667 170.533 308.667 170.267 308.267 216.933L307.867 257.333H276.534H245.334V241.6L245.467 226L251.201 222.533C260.267 216.933 264.134 209.067 265.067 194.8C265.734 181.067 264.134 174.533 258.667 170.667C255.334 168.267 252.801 168 235.467 168C214.934 168 210.801 168.933 207.334 174.267C204.534 178.533 203.334 192.267 205.067 201.6C206.934 211.2 211.601 218.4 219.334 223.2L225.334 227.067V242.133V257.333H205.334C183.201 257.333 174.801 258.667 164.001 263.867C147.467 271.867 132.801 291.067 132.801 304.8C132.801 314 138.401 323.2 146.534 327.6L152.401 330.667H219.601H286.667V344.133C286.667 359.733 288.134 366 293.467 372.533C299.601 379.733 306.934 382.667 319.734 382.667H330.667V450.267V518L307.334 536.533C294.534 546.667 282.801 556.4 281.201 558.133C275.601 564.133 278.001 576.8 285.601 580.8C291.067 583.6 390.401 583.6 395.867 580.667C400.934 578.133 404.534 570.4 403.467 564.667C402.401 559.333 398.134 555.333 370.267 533.333L350.801 518L350.667 450.267V382.667H361.334C377.467 382.667 386.667 377.733 392.134 366C394.267 361.467 394.667 357.2 394.667 338.4V316.133L391.201 313.467C387.601 310.667 386.934 310.667 272.534 310.667C209.334 310.667 156.667 310.267 155.467 309.867C149.467 307.6 155.734 293.867 166.401 285.733C178.001 276.933 169.601 277.2 343.467 277.6L500.667 278L507.334 281.067C515.334 284.667 520.401 289.2 525.467 297.2C529.867 304 530.134 305.733 527.201 308.533C525.467 310.4 519.067 310.667 477.201 310.667H429.201L426.001 314C424.134 315.733 422.667 318.8 422.667 320.667C422.667 322.533 424.134 325.6 426.001 327.333L429.201 330.667H478.934C524.267 330.667 529.201 330.4 534.001 328.133C543.867 323.733 550.534 312 548.934 302C546.934 290.133 532.934 271.733 520.267 264.933C509.201 258.933 500.267 257.333 477.067 257.333H456.001V242V226.8L459.734 224.8C464.934 222 471.601 214.8 473.867 209.067C475.334 205.733 476.001 199.733 476.001 190.533V177.067L471.467 172.533L466.934 168H446.401C430.001 168 425.334 168.4 422.934 170.133C417.734 173.733 416.001 179.067 416.001 191.6C416.001 201.067 416.667 204.667 419.201 210C422.267 216.8 428.401 223.067 433.334 224.667C435.867 225.467 436.001 226.667 436.001 241.467V257.333H404.801H373.467L373.067 216.933L372.667 176.667L368.801 169.6C366.667 165.733 361.734 159.067 357.734 154.8L350.667 146.933V126.667C350.667 107.067 350.534 106.4 347.334 103.333C345.601 101.467 342.534 100 340.667 100C338.801 100 335.734 101.467 334.001 103.333ZM345.601 170.267C351.734 177.333 352.001 179.333 352.001 219.333V257.333H340.001H328.001V221.467C328.001 192.667 328.401 184.533 330.001 179.867C333.734 169.333 340.934 164.933 345.601 170.267ZM245.334 193.333C245.334 200.133 243.201 204.667 239.067 206.533C234.534 208.667 232.801 208.4 228.801 205.2C225.867 202.8 225.334 201.467 225.334 195.2V188H235.334H245.334V193.333ZM456.001 195.2C456.001 201.467 455.467 202.8 452.401 205.333C449.734 207.467 447.601 208 444.667 207.467C438.801 206.267 436.001 202.133 436.001 194.533V188H446.001H456.001V195.2ZM374.667 344C374.667 363.6 376.267 362.667 340.667 362.667C305.067 362.667 306.667 363.6 306.667 344V330.667H340.667H374.667V344ZM357.601 548.933L373.867 562L357.601 562.4C348.801 562.533 333.867 562.533 324.667 562.4L307.867 562L323.601 549.067C332.267 542 339.867 536.133 340.401 536.133C340.934 536 348.667 541.867 357.601 548.933Z" fill="#3B82F6"/>
<path d="M21.7337 185.867C13.7337 188.4 8.53375 192.667 4.40041 199.734L0.66708 206L0.26708 300C0.000413035 366.8 0.26708 396.267 1.33375 402C5.73375 424.534 22.8004 442.934 44.9338 448.8C49.8671 450 54.1338 451.2 54.2671 451.334C54.5338 451.467 45.6004 478.4 34.6671 511.467C23.6004 544.4 14.6671 572.4 14.6671 573.734C14.6671 577.2 20.6671 582.667 24.5337 582.667C32.1337 582.667 33.4671 579.734 52.8004 520.667C62.8004 489.867 72.1338 462.534 73.4671 459.867C77.4671 451.867 81.7338 450.667 107.2 450.667C130.4 450.667 135.6 451.6 140.267 456.8C141.467 458.267 152.4 486 164.534 518.667C187.2 579.734 188.534 582.667 195.6 582.667C199.334 582.667 205.334 577.2 205.334 573.6C205.334 572.267 195.6 545.067 183.867 513.334C172 481.467 162 454.267 161.734 452.934C161.067 450.934 162 450.667 167.867 450.667C180 450.667 190.4 444 196.267 432.8C199.734 426 199.734 414 196.134 406.934C192.667 400.134 184 392.534 177.734 390.8C174.534 389.867 152.134 389.334 117.067 389.334H61.3338V334C61.3338 280.4 61.2004 278.534 58.6671 276C54.9338 272.267 48.6671 272.534 44.6671 276.667L41.3338 279.867V336.934C41.3338 399.867 41.3338 399.734 49.7338 405.867C53.4671 408.534 55.4671 408.667 113.334 409.334C169.734 410 173.2 410.134 175.867 412.534C179.867 416.134 179.6 424 175.467 427.867L172.4 430.8L110.534 430.4C49.2004 430 48.6671 430 43.0671 426.934C34.2671 422.267 28.4004 416.4 24.4004 408.267L20.6671 400.667L20.2671 306.8C20.0004 224.534 20.1337 212.534 22.0004 209.867C26.2671 203.334 33.2004 202.534 38.6671 208C40.9338 210.267 41.3338 212.534 41.3338 224.534C41.3338 236.4 41.7338 238.8 44.1338 241.867C47.6004 246.267 54.6671 246.667 58.6671 242.667C61.0671 240.267 61.3338 238.267 61.3338 224.8C61.3338 216.534 60.6671 207.734 59.8671 205.2C54.6671 190 36.9337 180.934 21.7337 185.867Z" fill="#3B82F6"/>
<path d="M644.267 185.334C637.734 186.8 629.867 192.667 625.734 198.934L622.001 204.534L621.601 296.934L621.334 389.334H565.601C530.534 389.334 508.134 389.867 504.934 390.8C498.534 392.534 490.001 400.134 486.401 407.067C483.067 413.867 482.801 425.734 486.001 432.534C489.067 438.934 498.534 447.067 505.067 449.067C508.001 450 512.801 450.667 516.001 450.667C520.801 450.667 521.601 451.067 520.934 452.934C520.667 454.267 510.667 481.467 498.801 513.334C487.067 545.067 477.334 572.267 477.334 573.6C477.334 577.2 483.334 582.667 487.067 582.667C494.134 582.667 495.467 579.734 518.134 518.667C530.267 486 541.201 458.267 542.401 456.8C547.067 451.6 552.267 450.667 575.467 450.667C600.267 450.667 605.201 451.867 608.934 459.067C610.001 461.334 619.334 488.667 629.601 519.867C649.067 579.334 650.534 582.667 657.734 582.667C662.134 582.667 666.401 579.2 667.201 574.934C667.867 572.4 662.534 554.8 648.001 511.467C637.067 478.534 628.134 451.467 628.401 451.334C628.534 451.2 632.801 450 637.734 448.8C655.201 444.134 668.401 432.667 677.201 414.667L682.001 404.667V305.334V206L678.401 199.867C674.401 193.067 667.201 187.6 659.334 185.467C653.334 183.867 650.667 183.867 644.267 185.334ZM658.801 207.867L662.801 211.867L662.401 306.267L662.001 400.667L658.801 407.2C654.934 415.2 647.467 422.8 639.734 426.934C634.001 430 633.734 430 571.867 430.4L509.601 430.8L506.801 427.2C503.334 422.8 503.201 417.2 506.534 413.2L509.067 410L569.067 409.334C627.201 408.667 629.201 408.534 632.934 405.867C641.601 399.467 641.334 403.6 641.334 302.534C641.334 206.267 641.201 208.934 647.334 205.6C651.734 203.2 654.667 203.734 658.801 207.867Z" fill="#3B82F6"/>
</svg>
